<svg width="40" height="41" viewBox="0 0 40 41" fill="none" xmlns="http://www.w3.org/2000/svg">
<g clip-path="url(#clip0_2_52)">
<rect opacity="0.1" y="0.111328" width="40" height="40" rx="20" fill="#183B56"/>
<path opacity="0.6" d="M26.3333 13.4446H14.3021C13.7708 13.4446 13.3333 13.9133 13.3333 14.4758V26.4446C13.3333 27.0071 13.7708 27.4446 14.3021 27.4446H26.3333C26.8646 27.4446 27.3333 27.0071 27.3333 26.4446V14.4758C27.3333 13.9133 26.8646 13.4446 26.3333 13.4446ZM17.5521 25.4446H15.4896V18.7883H17.5521V25.4446ZM16.5208 17.8508C15.8333 17.8508 15.3021 17.3196 15.3021 16.6633C15.3021 16.0071 15.8333 15.4446 16.5208 15.4446C17.1771 15.4446 17.7083 16.0071 17.7083 16.6633C17.7083 17.3196 17.1771 17.8508 16.5208 17.8508ZM25.3333 25.4446H23.2396V22.1946C23.2396 21.4446 23.2396 20.4446 22.1771 20.4446C21.0833 20.4446 20.9271 21.2883 20.9271 22.1633V25.4446H18.8646V18.7883H20.8333V19.6946H20.8646C21.1458 19.1633 21.8333 18.6008 22.8333 18.6008C24.9271 18.6008 25.3333 20.0071 25.3333 21.7883V25.4446Z" fill="#183B56"/>
</g>
<defs>
<clipPath id="clip0_2_52">
<rect width="40" height="40" fill="white" transform="translate(0 0.111328)"/>
</clipPath>
</defs>
</svg>
