<svg width="42" height="41" viewBox="0 0 42 41" fill="none" xmlns="http://www.w3.org/2000/svg">
<g clip-path="url(#clip0_2_37)">
<rect opacity="0.1" y="0.111328" width="42" height="40" rx="20" fill="#183B56"/>
<path opacity="0.6" d="M28.9583 20.6321C28.9583 20.1321 28.8958 19.7571 28.8333 19.3508H21.4583V22.0071H25.8333C25.6771 23.1633 24.5208 25.3508 21.4583 25.3508C18.8021 25.3508 16.6458 23.1633 16.6458 20.4446C16.6458 16.1008 21.7708 14.1008 24.5208 16.7571L26.6458 14.7258C25.3021 13.4758 23.5208 12.6946 21.4583 12.6946C17.1458 12.6946 13.7083 16.1633 13.7083 20.4446C13.7083 24.7571 17.1458 28.1946 21.4583 28.1946C25.9271 28.1946 28.9583 25.0696 28.9583 20.6321Z" fill="#183B56"/>
</g>
<defs>
<clipPath id="clip0_2_37">
<rect width="42" height="40" fill="white" transform="translate(0 0.111328)"/>
</clipPath>
</defs>
</svg>
