<svg width="42" height="41" viewBox="0 0 42 41" fill="none" xmlns="http://www.w3.org/2000/svg">
<g clip-path="url(#clip0_2_42)">
<rect opacity="0.1" y="0.111328" width="42" height="40" rx="20" fill="#183B56"/>
<path opacity="0.6" d="M27.6771 17.1946C28.3021 16.7258 28.8646 16.1633 29.3021 15.5071C28.7396 15.7571 28.0833 15.9446 27.4271 16.0071C28.1146 15.6008 28.6146 14.9758 28.8646 14.1946C28.2396 14.5696 27.5208 14.8508 26.8021 15.0071C26.1771 14.3508 25.3333 13.9758 24.3958 13.9758C22.5833 13.9758 21.1146 15.4446 21.1146 17.2571C21.1146 17.5071 21.1458 17.7571 21.2083 18.0071C18.4896 17.8508 16.0521 16.5383 14.4271 14.5696C14.1458 15.0383 13.9896 15.6008 13.9896 16.2258C13.9896 17.3508 14.5521 18.3508 15.4583 18.9446C14.9271 18.9133 14.3958 18.7883 13.9583 18.5383V18.5696C13.9583 20.1633 15.0833 21.4758 16.5833 21.7883C16.3333 21.8508 16.0208 21.9133 15.7396 21.9133C15.5208 21.9133 15.3333 21.8821 15.1146 21.8508C15.5208 23.1633 16.7396 24.1008 18.1771 24.1321C17.0521 25.0071 15.6458 25.5383 14.1146 25.5383C13.8333 25.5383 13.5833 25.5071 13.3333 25.4758C14.7708 26.4133 16.4896 26.9446 18.3646 26.9446C24.3958 26.9446 27.6771 21.9758 27.6771 17.6321C27.6771 17.4758 27.6771 17.3508 27.6771 17.1946Z" fill="#183B56"/>
</g>
<defs>
<clipPath id="clip0_2_42">
<rect width="42" height="40" fill="white" transform="translate(0 0.111328)"/>
</clipPath>
</defs>
</svg>
