<svg width="40" height="41" viewBox="0 0 40 41" fill="none" xmlns="http://www.w3.org/2000/svg">
<g clip-path="url(#clip0_2_47)">
<rect opacity="0.1" y="0.111328" width="40" height="40" rx="20" fill="#183B56"/>
<path opacity="0.6" d="M20.3333 16.8508C18.3333 16.8508 16.7396 18.4758 16.7396 20.4446C16.7396 22.4446 18.3333 24.0383 20.3333 24.0383C22.3021 24.0383 23.9271 22.4446 23.9271 20.4446C23.9271 18.4758 22.3021 16.8508 20.3333 16.8508ZM20.3333 22.7883C19.0521 22.7883 17.9896 21.7571 17.9896 20.4446C17.9896 19.1633 19.0208 18.1321 20.3333 18.1321C21.6146 18.1321 22.6458 19.1633 22.6458 20.4446C22.6458 21.7571 21.6146 22.7883 20.3333 22.7883ZM24.8958 16.7258C24.8958 16.2571 24.5208 15.8821 24.0521 15.8821C23.5833 15.8821 23.2083 16.2571 23.2083 16.7258C23.2083 17.1946 23.5833 17.5696 24.0521 17.5696C24.5208 17.5696 24.8958 17.1946 24.8958 16.7258ZM27.2708 17.5696C27.2083 16.4446 26.9583 15.4446 26.1458 14.6321C25.3333 13.8196 24.3333 13.5696 23.2083 13.5071C22.0521 13.4446 18.5833 13.4446 17.4271 13.5071C16.3021 13.5696 15.3333 13.8196 14.4896 14.6321C13.6771 15.4446 13.4271 16.4446 13.3646 17.5696C13.3021 18.7258 13.3021 22.1946 13.3646 23.3508C13.4271 24.4758 13.6771 25.4446 14.4896 26.2883C15.3333 27.1008 16.3021 27.3508 17.4271 27.4133C18.5833 27.4758 22.0521 27.4758 23.2083 27.4133C24.3333 27.3508 25.3333 27.1008 26.1458 26.2883C26.9583 25.4446 27.2083 24.4758 27.2708 23.3508C27.3333 22.1946 27.3333 18.7258 27.2708 17.5696ZM25.7708 24.5696C25.5521 25.1946 25.0521 25.6633 24.4583 25.9133C23.5208 26.2883 21.3333 26.1946 20.3333 26.1946C19.3021 26.1946 17.1146 26.2883 16.2083 25.9133C15.5833 25.6633 15.1146 25.1946 14.8646 24.5696C14.4896 23.6633 14.5833 21.4758 14.5833 20.4446C14.5833 19.4446 14.4896 17.2571 14.8646 16.3196C15.1146 15.7258 15.5833 15.2571 16.2083 15.0071C17.1146 14.6321 19.3021 14.7258 20.3333 14.7258C21.3333 14.7258 23.5208 14.6321 24.4583 15.0071C25.0521 15.2258 25.5208 15.7258 25.7708 16.3196C26.1458 17.2571 26.0521 19.4446 26.0521 20.4446C26.0521 21.4758 26.1458 23.6633 25.7708 24.5696Z" fill="#183B56"/>
</g>
<defs>
<clipPath id="clip0_2_47">
<rect width="40" height="40" fill="white" transform="translate(0 0.111328)"/>
</clipPath>
</defs>
</svg>
