<svg width="41" height="41" viewBox="0 0 41 41" fill="none" xmlns="http://www.w3.org/2000/svg">
<g id="oi:dollar" clip-path="url(#clip0_2_276)">
<path id="Vector" d="M15.0158 0.165039V5.16504H11.2658C7.86584 5.16504 5.01584 8.01504 5.01584 11.415V13.915C5.01584 17.315 7.21584 20.115 10.4658 20.965L23.2658 24.265C23.9658 24.465 24.9658 25.715 24.9658 26.465V28.965C24.9658 29.665 24.4158 30.215 23.7158 30.215H11.2158C10.7815 30.2133 10.3536 30.1106 9.96584 29.915V25.215H4.96584V30.215C4.96584 31.915 5.96584 33.365 7.16584 34.115C8.31584 34.915 9.76584 35.215 11.2158 35.215H14.9658V40.215H19.9658V35.215H23.7158C27.1658 35.215 29.9658 32.415 29.9658 28.965V26.465C29.9658 23.065 27.7658 20.265 24.5158 19.415L11.7158 16.115C11.0158 15.915 10.0158 14.665 10.0158 13.915V11.415C10.0158 10.715 10.5658 10.165 11.2658 10.165H23.7658C24.3158 10.165 24.8158 10.365 25.0158 10.465V15.165H30.0158V10.165C30.0158 8.46504 29.0158 7.01504 27.8158 6.26504C26.6658 5.46504 25.2158 5.16504 23.7658 5.16504H20.0158V0.165039H15.0158Z" fill="#FD7B27"/>
</g>
<defs>
<clipPath id="clip0_2_276">
<rect width="40" height="40" fill="white" transform="translate(0.0158691 0.165039)"/>
</clipPath>
</defs>
</svg>
