<svg width="22" height="15" viewBox="0 0 22 15" fill="none" xmlns="http://www.w3.org/2000/svg">
<path fill-rule="evenodd" clip-rule="evenodd" d="M0.500063 7.47347C0.500063 7.27455 0.579081 7.08379 0.719732 6.94314C0.860386 6.80248 1.05115 6.72347 1.25006 6.72347H18.9396L14.2191 2.00447C14.1493 1.93473 14.094 1.85195 14.0563 1.76084C14.0185 1.66973 13.9991 1.57208 13.9991 1.47347C13.9991 1.37485 14.0185 1.2772 14.0563 1.18609C14.094 1.09498 14.1493 1.0122 14.2191 0.942466C14.2888 0.872734 14.3716 0.81742 14.4627 0.779681C14.5538 0.741943 14.6514 0.722519 14.7501 0.722519C14.8487 0.722519 14.9463 0.741943 15.0374 0.779681C15.1285 0.81742 15.2113 0.872734 15.2811 0.942466L21.2811 6.94247C21.3509 7.01213 21.4063 7.0949 21.4441 7.18602C21.4819 7.27713 21.5014 7.37481 21.5014 7.47347C21.5014 7.57212 21.4819 7.6698 21.4441 7.76092C21.4063 7.85203 21.3509 7.9348 21.2811 8.00447L15.2811 14.0045C15.2113 14.0742 15.1285 14.1295 15.0374 14.1673C14.9463 14.205 14.8487 14.2244 14.7501 14.2244C14.6514 14.2244 14.5538 14.205 14.4627 14.1673C14.3716 14.1295 14.2888 14.0742 14.2191 14.0045C14.1493 13.9347 14.094 13.852 14.0563 13.7608C14.0185 13.6697 13.9991 13.5721 13.9991 13.4735C13.9991 13.3749 14.0185 13.2772 14.0563 13.1861C14.094 13.095 14.1493 13.0122 14.2191 12.9425L18.9396 8.22347H1.25006C1.05115 8.22347 0.860386 8.14445 0.719732 8.0038C0.579081 7.86314 0.500063 7.67238 0.500063 7.47347Z" fill="#404C99"/>
</svg>
